<svg xmlns="http://www.w3.org/2000/svg" width="256" height="256" viewBox="0 0 100 100"><rect width="100" height="100" rx="20" fill="#dedbd7"></rect><path fill="#21571c" d="M18.25 79.67Q10.62 79.67 6.76 77.02Q2.90 74.36 2.90 70.54L2.90 70.54Q2.90 67.72 4.60 66.02Q6.30 64.32 9.12 64.32L9.12 64.32Q9.79 64.32 10.45 64.44Q11.11 64.57 11.36 64.57L11.36 64.57L12.44 64.73L12.44 77.18Q13.02 77.51 13.60 77.60L13.60 77.60Q15.02 78.01 16.59 78.01L16.59 78.01Q26.55 78.01 26.55 61.83L26.55 61.83L26.55 22.82L21.57 21.57L21.57 20.33L45.23 20.33L45.23 21.57L40.25 22.82L40.25 61.83Q40.25 70.46 34.85 75.07Q29.46 79.67 18.25 79.67L18.25 79.67ZM52.70 78.43L52.70 77.18L57.68 75.94L57.68 22.82L52.70 21.57L52.70 20.33L97.10 20.33L97.10 35.27L94.61 35.27Q93.04 34.02 91.87 32.11L91.87 32.11Q89.22 27.63 89.22 22.40L89.22 22.40L71.37 22.40L71.37 48.55L80.92 48.55Q81.50 45.39 83.08 42.65L83.08 42.65Q83.74 41.41 84.65 40.25L84.65 40.25L87.14 40.25L87.14 58.92L84.65 58.92Q83.74 57.76 83.08 56.52L83.08 56.52Q81.50 53.78 80.92 50.62L80.92 50.62L71.37 50.62L71.37 75.94L76.35 77.18L76.35 78.43L52.70 78.43Z"></path></svg>